HIERARCHY
ROOT root
{
	OFFSET	0	13.1	24.9
	CHANNELS 6  Xposition Yposition Zposition Xrotation Yrotation Zrotation
	JOINT spine_1
	{
		OFFSET	0	9.99999	0
		CHANNELS 3  Xrotation Yrotation Zrotation
		JOINT spine_2
		{
			OFFSET	0	112	-10
			CHANNELS 3  Xrotation Yrotation Zrotation
			JOINT spine_3
			{
				OFFSET	0	206.5	19.3
				CHANNELS 3  Xrotation Yrotation Zrotation
				JOINT spine_4
				{
					OFFSET	0	110.4	14.6
					CHANNELS 3  Xrotation Yrotation Zrotation
					JOINT neck_1
					{
						OFFSET	0	71.8	-50.3
						CHANNELS 3  Xrotation Yrotation Zrotation
						JOINT neck_2
						{
							OFFSET	0	86.2	-25.8
							CHANNELS 3  Xrotation Yrotation Zrotation
							JOINT head_ee
							{
								OFFSET	0	179.8	-8.7
								CHANNELS 3  Xrotation Yrotation Zrotation
								End Site
								{
									OFFSET	1	0	0
								}
							}
						}
					}
					JOINT left_clavicle
					{
						OFFSET	-43.2	22.4	-70.8
						CHANNELS 3  Xrotation Yrotation Zrotation
						JOINT left_shoulder
						{
							OFFSET	-93.9	-5.79999	48.7
							CHANNELS 3  Xrotation Yrotation Zrotation
							JOINT left_elbow
							{
								OFFSET	-291.4	-30.8	15.2
								CHANNELS 3  Xrotation Yrotation Zrotation
								JOINT left_lowarm_twist
								{
									OFFSET	-110.7	-3.89999	13.6
									CHANNELS 3  Xrotation Yrotation Zrotation
									JOINT left_hand
									{
										OFFSET	-110.7	-3.89999	13.6
										CHANNELS 3  Xrotation Yrotation Zrotation
										JOINT left_ee
										{
											OFFSET	-80.8	-5.10001	12.1
											CHANNELS 3  Xrotation Yrotation Zrotation
											End Site
											{
												OFFSET	1	0	0
											}
										}
									}
								}
							}
						}
					}
					JOINT right_clavicle
					{
						OFFSET	43.2	22.4	-70.8
						CHANNELS 3  Xrotation Yrotation Zrotation
						JOINT right_shoulder
						{
							OFFSET	93.9	-5.79999	48.7
							CHANNELS 3  Xrotation Yrotation Zrotation
							JOINT right_elbow
							{
								OFFSET	291.4	-30.8	15.2
								CHANNELS 3  Xrotation Yrotation Zrotation
								JOINT right_lowarm_twist
								{
									OFFSET	110.7	-3.89999	13.6
									CHANNELS 3  Xrotation Yrotation Zrotation
									JOINT right_hand
									{
										OFFSET	110.7	-3.89999	13.6
										CHANNELS 3  Xrotation Yrotation Zrotation
										JOINT right_ee
										{
											OFFSET	80.8	-5.10001	12.1
											CHANNELS 3  Xrotation Yrotation Zrotation
											End Site
											{
												OFFSET	1	0	0
											}
										}
									}
								}
							}
						}
					}
				}
			}
		}
	}
	JOINT left_hip
	{
		OFFSET	-82.8	-127.5	0.300001
		CHANNELS 3  Xrotation Yrotation Zrotation
		JOINT left_knee
		{
			OFFSET	-28.2	-396.7	2.2
			CHANNELS 3  Xrotation Yrotation Zrotation
			JOINT left_ankle
			{
				OFFSET	-11.7	-411.3	35.4
				CHANNELS 3  Xrotation Yrotation Zrotation
				JOINT left_toes
				{
					OFFSET	0	-60	-88.6
					CHANNELS 3  Xrotation Yrotation Zrotation
					JOINT left_foot_ee
					{
						OFFSET	-22.5	-16.5	-42.2
						CHANNELS 3  Xrotation Yrotation Zrotation
						End Site
						{
							OFFSET	1	0	0
						}
					}
				}
			}
		}
	}
	JOINT right_hip
	{
		OFFSET	82.8	-127.5	0.300001
		CHANNELS 3  Xrotation Yrotation Zrotation
		JOINT right_knee
		{
			OFFSET	28.2	-396.7	2.2
			CHANNELS 3  Xrotation Yrotation Zrotation
			JOINT right_ankle
			{
				OFFSET	11.7	-411.3	35.4
				CHANNELS 3  Xrotation Yrotation Zrotation
				JOINT right_toes
				{
					OFFSET	0	-60	-88.6
					CHANNELS 3  Xrotation Yrotation Zrotation
					JOINT right_foot_ee
					{
						OFFSET	22.5	-16.5	-42.2
						CHANNELS 3  Xrotation Yrotation Zrotation
						End Site
						{
							OFFSET	1	0	0
						}
					}
				}
			}
		}
	}
}
MOTION
Frames: 5
Frame Time: 0.02
2939.79 718.35 -451.936 157.404 -71.4762 159.958 -1.09372 0.167087 0.120539 -1.09373 0.159079 0.130927 -1.09335 0.124904 0.16385 -1.09336 0.149214 0.142067 -10.5413 13.7142 2.12525 -10.7737 24.4876 5.68667 -0.0 0.0 -0.0 -3.68808 23.6415 -2.30418 -11.8549 -22.9119 72.7067 1.0378 -27.207 0.251144 -14.0213 -0.699322 1.64631 -0.575448 -4.39593 -5.74651 -0.0 0.0 -0.0 1.74935 19.1605 -1.52029 6.19267 27.6877 -76.3739 1.40429 34.8223 -0.440399 54.769 1.33098 6.605 0.235667 3.49349 -0.106946 0.0 0.0 0.0 -4.89208 20.8841 -10.1767 -30.4919 0.0249114 4.6245 28.3885 -9.10646 -3.85114 -5.68011 0.0 0.0 -0.0 0.0 -0.0 14.4312 34.6318 -17.7243 -23.2444 -0.243021 -3.53436 41.6708 -16.6242 5.10762 -37.3551 0.0 0.0 0.0 0.0 0.0 
2947.4 720.235 -453.826 156.558 -71.4055 158.755 -1.1262 0.167865 0.197761 -1.12619 0.15494 0.208042 -1.1256 0.103099 0.23803 -1.12565 0.139398 0.218761 -10.6242 14.1786 2.88282 -10.8609 24.8784 6.56063 -0.0 0.0 -0.0 -3.68681 23.2543 -2.38729 -11.9127 -23.1301 73.1509 0.900041 -24.0296 0.191556 -13.5755 -0.670966 1.59679 -0.612926 -4.08922 -5.86754 -0.0 0.0 -0.0 2.0064 19.5136 -2.03643 6.36088 27.0269 -76.456 1.3159 33.097 -0.391014 53.5924 1.23783 6.4865 0.270907 3.41455 -0.377263 0.0 0.0 0.0 -3.68214 20.5092 -9.8636 -28.9771 0.0818857 4.39901 30.7592 -7.06372 -4.07436 -5.30548 0.0 0.0 -0.0 0.0 -0.0 14.2061 36.7816 -17.7858 -23.8755 -0.229533 -3.63027 41.5284 -15.9325 5.08281 -37.2882 0.0 0.0 0.0 0.0 0.0 
2953.64 723.488 -454.172 158.143 -69.5236 160.059 -1.14609 0.199924 0.277554 -1.14606 0.181857 0.289713 -1.14509 0.110459 0.323735 -1.1452 0.1602 0.302227 -10.7584 14.4108 3.1927 -11.0053 25.1342 6.95294 -0.0 0.0 -0.0 -3.44483 23.0966 -2.08538 -12.1688 -22.2665 73.933 0.679472 -18.6028 0.111286 -13.2711 -0.651831 1.56287 -0.602128 -3.04076 -5.3408 -0.0 0.0 -0.0 2.25976 18.5244 -2.67976 7.02611 25.9347 -76.3848 1.49384 36.4992 -0.492606 52.1889 1.12994 6.3427 0.511326 4.81808 -1.40442 0.0 0.0 0.0 -1.02727 20.5596 -10.3698 -28.0257 0.114609 4.25667 32.2524 -2.77245 -4.17129 -5.19916 0.0 0.0 -0.0 0.0 -0.0 13.5122 39.3408 -17.6342 -22.734 -0.253157 -3.45669 41.7467 -14.2301 5.0744 -36.9023 0.0 0.0 0.0 0.0 0.0 
2958.99 724.443 -458.268 158.95 -68.3975 160.816 -1.10565 0.237436 0.484284 -1.10555 0.206139 0.498411 -1.10361 0.0865484 0.532368 -1.10396 0.169539 0.512018 -10.9388 14.6341 3.48146 -11.1996 25.3958 7.33387 -0.0 0.0 -0.0 -3.28294 22.9436 -1.89212 -12.1326 -21.6755 74.592 0.540045 -14.9773 0.0709901 -12.9619 -0.632578 1.5283 -0.645694 -2.23273 -5.28456 -0.0 0.0 -0.0 2.36459 18.209 -2.93562 7.38872 25.3215 -76.2545 1.5026 36.6595 -0.497827 51.3259 1.06536 6.25299 0.582159 5.1722 -1.73268 0.0 0.0 0.0 0.84219 20.471 -10.9018 -27.2566 0.13933 4.14123 33.0091 -0.562255 -4.22698 -5.16366 0.0 0.0 -0.0 0.0 -0.0 13.2583 41.0381 -17.9719 -24.0227 -0.226235 -3.65262 41.9152 -12.9916 5.07178 -36.906 0.0 0.0 0.0 0.0 0.0 
2960.97 723.849 -455.54 160.975 -67.1432 162.953 -1.1349 0.383933 0.586411 -1.13478 0.34584 0.609652 -1.13086 0.196759 0.672729 -1.13136 0.300533 0.633214 -10.6124 14.794 4.19366 -10.8292 25.1784 7.98094 -0.0 0.0 -0.0 -3.50717 23.3856 -2.11028 -12.2758 -22.2116 74.5469 0.447966 -12.5119 0.0491077 -13.4002 -0.659928 1.57727 -0.694698 -1.09264 -5.11926 -0.0 0.0 -0.0 3.05099 18.3267 -4.39475 7.59981 25.0604 -75.3987 1.61541 38.6647 -0.566764 50.6244 1.01387 6.17938 0.705227 4.50672 -2.84263 0.0 0.0 0.0 4.6131 20.0832 -12.8096 -21.7578 0.270611 3.30791 31.0648 4.03188 -4.00322 -5.52312 0.0 0.0 -0.0 0.0 -0.0 12.023 40.7079 -16.6809 -20.2557 -0.292511 -3.07847 41.3011 -9.70296 4.98663 -36.1063 0.0 0.0 0.0 0.0 0.0 
